<svg data-v-423bf9ae="" xmlns="http://www.w3.org/2000/svg" viewBox="0 0 341 90" class="iconLeft"><!----><!----><!----><g data-v-423bf9ae="" id="8282b9e3-7fd0-40ed-824a-e27ef33c292e" fill="#6096B4" transform="matrix(5.208333557540629,0,0,5.208333557540629,198.42656642151974,-10.364585259687864)"><path d="M10.93 7.46L10.93 7.46L10.93 7.46Q10.93 8.13 10.63 8.73L10.63 8.73L10.63 8.73Q10.33 9.32 9.80 9.79L9.80 9.79L9.80 9.79Q9.27 10.26 8.55 10.58L8.55 10.58L8.55 10.58Q7.84 10.91 7 11.02L7 11.02L7 11.02Q7.21 11.65 7.51 12.31L7.51 12.31L7.51 12.31Q7.81 12.98 8.16 13.59L8.16 13.59L8.16 13.59Q8.51 14.21 8.89 14.73L8.89 14.73L8.89 14.73Q9.27 15.25 9.63 15.58L9.63 15.58L9.63 15.58Q9.56 15.72 9.43 15.86L9.43 15.86L9.43 15.86Q9.30 16.00 9.12 16.12L9.12 16.12L9.12 16.12Q8.95 16.24 8.76 16.32L8.76 16.32L8.76 16.32Q8.57 16.39 8.40 16.39L8.40 16.39L8.40 16.39Q8.09 16.39 7.81 16.10L7.81 16.10L7.81 16.10Q7.53 15.81 7.25 15.17L7.25 15.17L7.25 15.17Q6.96 14.53 6.64 13.52L6.64 13.52L6.64 13.52Q6.33 12.50 5.95 11.07L5.95 11.07L5.95 11.07Q5.80 11.07 5.64 11.07L5.64 11.07L5.64 11.07Q5.49 11.07 5.40 11.05L5.40 11.05L5.40 11.05Q5.31 10.99 5.19 10.85L5.19 10.85L5.19 10.85Q4.82 11.66 4.52 12.38L4.52 12.38L4.52 12.38Q4.23 13.09 4.00 13.76L4.00 13.76L4.00 13.76Q3.77 14.42 3.59 15.04L3.59 15.04L3.59 15.04Q3.42 15.67 3.29 16.31L3.29 16.31L3.29 16.31Q2.81 16.20 2.46 15.90L2.46 15.90L2.46 15.90Q2.11 15.61 1.81 15.08L1.81 15.08L1.81 15.08Q1.86 14.95 1.93 14.83L1.93 14.83L1.93 14.83Q1.99 14.71 2.09 14.50L2.09 14.50L2.09 14.50Q2.18 14.28 2.33 13.94L2.33 13.94L2.33 13.94Q2.48 13.61 2.72 13.05L2.72 13.05L2.72 13.05Q2.97 12.49 3.31 11.68L3.31 11.68L3.31 11.68Q3.65 10.86 4.14 9.70L4.14 9.70L4.14 9.70Q4.37 9.18 4.53 8.79L4.53 8.79L4.53 8.79Q4.69 8.40 4.82 8.04L4.82 8.04L4.82 8.04Q4.94 7.69 5.05 7.33L5.05 7.33L5.05 7.33Q5.15 6.97 5.26 6.51L5.26 6.51L5.26 6.51Q4.62 6.73 4.07 7.01L4.07 7.01L4.07 7.01Q3.51 7.28 3.15 7.59L3.15 7.59L3.15 7.59Q3.02 7.50 2.89 7.34L2.89 7.34L2.89 7.34Q2.76 7.17 2.65 6.96L2.65 6.96L2.65 6.96Q2.53 6.76 2.45 6.55L2.45 6.55L2.45 6.55Q2.37 6.34 2.35 6.17L2.35 6.17L2.35 6.17Q2.77 5.89 3.38 5.66L3.38 5.66L3.38 5.66Q3.99 5.42 4.68 5.24L4.68 5.24L4.68 5.24Q5.36 5.07 6.08 4.97L6.08 4.97L6.08 4.97Q6.79 4.87 7.41 4.87L7.41 4.87L7.41 4.87Q9.09 4.87 10.01 5.56L10.01 5.56L10.01 5.56Q10.93 6.26 10.93 7.46ZM7.35 6.02L7.52 6.29L7.52 6.29Q7.42 6.41 7.21 6.79L7.21 6.79L7.21 6.79Q7 7.17 6.73 7.69L6.73 7.69L6.73 7.69Q6.45 8.22 6.15 8.83L6.15 8.83L6.15 8.83Q5.85 9.45 5.57 10.05L5.57 10.05L5.57 10.05Q6.62 10.05 7.50 9.86L7.50 9.86L7.50 9.86Q8.39 9.66 9.03 9.30L9.03 9.30L9.03 9.30Q9.67 8.95 10.03 8.46L10.03 8.46L10.03 8.46Q10.39 7.98 10.39 7.39L10.39 7.39L10.39 7.39Q10.39 6.69 9.88 6.32L9.88 6.32L9.88 6.32Q9.38 5.95 8.33 5.95L8.33 5.95L8.33 5.95Q8.09 5.95 7.85 5.97L7.85 5.97L7.85 5.97Q7.62 5.99 7.35 6.02L7.35 6.02ZM12.08 15.67L12.08 15.67L12.08 15.67Q11.28 15.58 10.81 14.97L10.81 14.97L10.81 14.97Q10.33 14.35 10.33 13.40L10.33 13.40L10.33 13.40Q10.33 12.84 10.50 12.24L10.50 12.24L10.50 12.24Q10.67 11.63 10.98 11.07L10.98 11.07L10.98 11.07Q11.28 10.50 11.70 10.00L11.70 10.00L11.70 10.00Q12.12 9.49 12.61 9.13L12.61 9.13L12.61 9.13Q13.38 8.55 14.06 8.55L14.06 8.55L14.06 8.55Q14.50 8.79 14.94 9.55L14.94 9.55L14.94 9.55Q15.01 9.55 15.06 9.54L15.06 9.54L15.06 9.54Q15.12 9.53 15.19 9.53L15.19 9.53L15.19 9.53Q15.93 9.53 15.93 10.85L15.93 10.85L15.93 10.85Q15.93 11.73 15.64 12.52L15.64 12.52L15.64 12.52Q15.36 13.31 14.85 13.96L14.85 13.96L14.85 13.96Q14.34 14.60 13.63 15.04L13.63 15.04L13.63 15.04Q12.92 15.48 12.08 15.67ZM12.80 11.26L12.80 11.26L12.80 11.26Q12.56 11.58 12.35 11.96L12.35 11.96L12.35 11.96Q12.14 12.33 11.98 12.72L11.98 12.72L11.98 12.72Q11.83 13.10 11.75 13.46L11.75 13.46L11.75 13.46Q11.66 13.82 11.66 14.10L11.66 14.10L11.66 14.10Q11.66 14.43 11.77 14.74L11.77 14.74L11.77 14.74Q11.89 15.05 12.03 15.09L12.03 15.09L12.03 15.09Q12.66 14.95 13.18 14.57L13.18 14.57L13.18 14.57Q13.71 14.18 14.09 13.61L14.09 13.61L14.09 13.61Q14.48 13.03 14.69 12.31L14.69 12.31L14.69 12.31Q14.91 11.58 14.91 10.75L14.91 10.75L14.91 10.75Q14.91 10.39 14.87 10.18L14.87 10.18L14.87 10.18Q14.83 9.97 14.73 9.81L14.73 9.81L14.73 9.81Q14.11 10.00 13.63 10.40L13.63 10.40L13.63 10.40Q13.15 10.81 12.80 11.26ZM18.09 9.81L17.29 9.81L17.29 9.81Q17.22 9.73 17.16 9.46L17.16 9.46L17.16 9.46Q17.11 9.18 17.11 8.99L17.11 8.99L17.11 8.99Q17.47 9.02 17.81 9.04L17.81 9.04L17.81 9.04Q18.14 9.06 18.42 9.07L18.42 9.07L18.42 9.07Q18.63 8.65 18.88 8.24L18.88 8.24L18.88 8.24Q19.12 7.83 19.35 7.48L19.35 7.48L19.35 7.48Q19.59 7.14 19.79 6.90L19.79 6.90L19.79 6.90Q19.99 6.66 20.10 6.59L20.10 6.59L20.10 6.59Q20.24 6.59 20.46 6.64L20.46 6.64L20.46 6.64Q20.68 6.69 20.90 6.77L20.90 6.77L20.90 6.77Q21.13 6.85 21.31 6.93L21.31 6.93L21.31 6.93Q21.49 7.01 21.56 7.10L21.56 7.10L21.56 7.10Q21.14 7.63 20.84 8.09L20.84 8.09L20.84 8.09Q20.54 8.54 20.19 9.13L20.19 9.13L20.19 9.13Q20.47 9.13 20.75 9.11L20.75 9.11L20.75 9.11Q21.04 9.10 21.34 9.07L21.34 9.07L21.34 9.07Q21.41 9.14 21.45 9.25L21.45 9.25L21.45 9.25Q21.49 9.35 21.49 9.46L21.49 9.46L21.49 9.46Q20.80 9.72 19.82 9.74L19.82 9.74L19.82 9.74Q19.47 10.42 19.20 11.08L19.20 11.08L19.20 11.08Q18.93 11.75 18.74 12.36L18.74 12.36L18.74 12.36Q18.55 12.98 18.44 13.52L18.44 13.52L18.44 13.52Q18.34 14.07 18.34 14.50L18.34 14.50L18.34 14.50Q18.34 15.12 18.80 15.19L18.80 15.19L18.80 15.19Q19.22 15.13 19.60 14.98L19.60 14.98L19.60 14.98Q19.98 14.83 20.27 14.59L20.27 14.59L20.27 14.59Q20.36 14.71 20.37 14.80L20.37 14.80L20.37 14.80Q20.29 14.92 20.08 15.09L20.08 15.09L20.08 15.09Q19.88 15.26 19.64 15.42L19.64 15.42L19.64 15.42Q19.40 15.58 19.18 15.69L19.18 15.69L19.18 15.69Q18.96 15.81 18.84 15.82L18.84 15.82L18.84 15.82Q18.49 15.81 18.14 15.67L18.14 15.67L18.14 15.67Q17.79 15.53 17.51 15.32L17.51 15.32L17.51 15.32Q17.22 15.11 17.04 14.85L17.04 14.85L17.04 14.85Q16.86 14.59 16.86 14.34L16.86 14.34L16.86 14.34Q16.86 14 16.95 13.49L16.95 13.49L16.95 13.49Q17.04 12.98 17.21 12.38L17.21 12.38L17.21 12.38Q17.37 11.77 17.60 11.12L17.60 11.12L17.60 11.12Q17.82 10.46 18.09 9.81L18.09 9.81ZM26.22 9.52L26.22 9.52L26.22 9.52Q26.36 9.52 26.55 9.57L26.55 9.57L26.55 9.57Q26.74 9.62 26.89 9.70L26.89 9.70L26.89 9.70Q27.05 9.77 27.15 9.86L27.15 9.86L27.15 9.86Q27.26 9.94 27.26 10.01L27.26 10.01L27.26 10.01Q26.98 10.60 26.74 11.19L26.74 11.19L26.74 11.19Q26.50 11.79 26.33 12.33L26.33 12.33L26.33 12.33Q26.17 12.88 26.07 13.36L26.07 13.36L26.07 13.36Q25.98 13.83 25.98 14.18L25.98 14.18L25.98 14.18Q25.98 14.57 26.07 14.83L26.07 14.83L26.07 14.83Q26.15 15.09 26.35 15.20L26.35 15.20L26.35 15.20Q26.18 15.32 25.91 15.39L25.91 15.39L25.91 15.39Q25.65 15.46 25.44 15.46L25.44 15.46L25.44 15.46Q24.68 15.46 24.68 14.42L24.68 14.42L24.68 14.42Q24.68 13.62 25.21 12.24L25.21 12.24L25.21 12.24Q24.93 12.88 24.57 13.45L24.57 13.45L24.57 13.45Q24.21 14.01 23.83 14.45L23.83 14.45L23.83 14.45Q23.45 14.88 23.06 15.15L23.06 15.15L23.06 15.15Q22.68 15.43 22.36 15.48L22.36 15.48L22.36 15.48Q21.84 15.46 21.52 14.99L21.52 14.99L21.52 14.99Q21.20 14.52 21.20 13.79L21.20 13.79L21.20 13.79Q21.20 13.01 21.53 12.14L21.53 12.14L21.53 12.14Q21.87 11.27 22.39 10.53L22.39 10.53L22.39 10.53Q22.92 9.79 23.53 9.29L23.53 9.29L23.53 9.29Q24.15 8.79 24.72 8.76L24.72 8.76L24.72 8.76Q24.86 8.81 25.04 8.93L25.04 8.93L25.04 8.93Q25.21 9.06 25.38 9.23L25.38 9.23L25.38 9.23Q25.54 9.39 25.65 9.57L25.65 9.57L25.65 9.57Q25.76 9.74 25.77 9.87L25.77 9.87L25.77 9.87Q25.21 9.95 24.62 10.42L24.62 10.42L24.62 10.42Q24.02 10.88 23.54 11.53L23.54 11.53L23.54 11.53Q23.06 12.18 22.75 12.92L22.75 12.92L22.75 12.92Q22.44 13.66 22.44 14.31L22.44 14.31L22.44 14.31Q22.44 14.57 22.64 14.64L22.64 14.64L22.64 14.64Q23.04 14.56 23.58 13.95L23.58 13.95L23.58 13.95Q24.11 13.34 24.86 12.07L24.86 12.07L24.86 12.07Q25.00 11.82 25.18 11.51L25.18 11.51L25.18 11.51Q25.35 11.20 25.54 10.86L25.54 10.86L25.54 10.86Q25.72 10.53 25.89 10.18L25.89 10.18L25.89 10.18Q26.07 9.84 26.22 9.52Z"></path></g><!----><g data-v-423bf9ae="" id="e5530d51-b527-4aaa-9e6c-9cf424156db8" transform="matrix(2.221673962083919,0,0,2.221673962083919,-5.448915070336881,-62.67599469049449)" stroke="none" fill="#EEE9DA"><ellipse cx="80.072" cy="65.967" rx="7.366" ry="2.582"></ellipse><ellipse cx="10.249" cy="66.312" rx="7.366" ry="2.582"></ellipse><ellipse cx="63.345" cy="66.14" rx="7.367" ry="2.582"></ellipse><ellipse cx="27.436" cy="66.14" rx="7.366" ry="2.582"></ellipse><ellipse cx="45.238" cy="66.14" rx="7.366" ry="2.582"></ellipse><ellipse cx="77.639" cy="58.824" rx="6.402" ry="2.321"></ellipse><ellipse cx="16.957" cy="59.134" rx="6.402" ry="2.322"></ellipse><ellipse cx="63.102" cy="58.979" rx="6.402" ry="2.322"></ellipse><ellipse cx="31.894" cy="58.979" rx="6.402" ry="2.322"></ellipse><ellipse cx="47.365" cy="58.979" rx="6.402" ry="2.322"></ellipse><ellipse cx="74.622" cy="53.123" rx="5.43" ry="1.529"></ellipse><ellipse cx="23.148" cy="53.326" rx="5.43" ry="1.53"></ellipse><ellipse cx="62.291" cy="53.224" rx="5.431" ry="1.53"></ellipse><ellipse cx="35.819" cy="53.224" rx="5.43" ry="1.53"></ellipse><ellipse cx="48.942" cy="53.224" rx="5.43" ry="1.53"></ellipse><ellipse cx="72.712" cy="49.097" rx="4.731" ry="1.156"></ellipse><ellipse cx="27.87" cy="49.251" rx="4.731" ry="1.156"></ellipse><ellipse cx="61.97" cy="49.174" rx="4.73" ry="1.155"></ellipse><ellipse cx="38.908" cy="49.174" rx="4.731" ry="1.155"></ellipse><ellipse cx="50.34" cy="49.174" rx="4.73" ry="1.155"></ellipse><ellipse cx="70.183" cy="45.567" rx="3.904" ry="1.155"></ellipse><ellipse cx="33.181" cy="45.722" rx="3.904" ry="1.155"></ellipse><ellipse cx="61.319" cy="45.645" rx="3.903" ry="1.155"></ellipse><ellipse cx="42.289" cy="45.645" rx="3.903" ry="1.155"></ellipse><ellipse cx="51.724" cy="45.645" rx="3.903" ry="1.155"></ellipse><ellipse cx="67.674" cy="42.249" rx="3.345" ry=".847"></ellipse><ellipse cx="35.968" cy="42.361" rx="3.345" ry=".848"></ellipse><ellipse cx="60.078" cy="42.305" rx="3.345" ry=".846"></ellipse><ellipse cx="43.773" cy="42.305" rx="3.345" ry=".846"></ellipse><ellipse cx="51.856" cy="42.305" rx="3.345" ry=".846"></ellipse><ellipse cx="64.713" cy="39.569" rx="2.91" ry=".75"></ellipse><ellipse cx="37.13" cy="39.669" rx="2.909" ry=".75"></ellipse><ellipse cx="58.104" cy="39.62" rx="2.909" ry=".749"></ellipse><ellipse cx="43.919" cy="39.62" rx="2.91" ry=".749"></ellipse><ellipse cx="50.952" cy="39.62" rx="2.91" ry=".749"></ellipse><ellipse cx="60.82" cy="37.488" rx="2.505" ry=".56"></ellipse><ellipse cx="37.069" cy="37.563" rx="2.505" ry=".559"></ellipse><ellipse cx="55.13" cy="37.526" rx="2.505" ry=".559"></ellipse><ellipse cx="42.916" cy="37.526" rx="2.506" ry=".559"></ellipse><ellipse cx="48.971" cy="37.526" rx="2.506" ry=".559"></ellipse><ellipse cx="55.342" cy="35.668" rx="2.164" ry=".56"></ellipse><ellipse cx="34.837" cy="35.744" rx="2.163" ry=".56"></ellipse><ellipse cx="50.43" cy="35.706" rx="2.163" ry=".559"></ellipse><ellipse cx="39.884" cy="35.706" rx="2.163" ry=".559"></ellipse><ellipse cx="45.112" cy="35.706" rx="2.163" ry=".559"></ellipse><ellipse cx="51.567" cy="34.081" rx="1.897" ry=".378"></ellipse><ellipse cx="33.578" cy="34.132" rx="1.898" ry=".377"></ellipse><ellipse cx="47.258" cy="34.106" rx="1.897" ry=".377"></ellipse><ellipse cx="38.006" cy="34.106" rx="1.897" ry=".377"></ellipse><ellipse cx="42.592" cy="34.106" rx="1.898" ry=".377"></ellipse><ellipse cx="47.812" cy="32.997" rx="1.664" ry=".253"></ellipse><ellipse cx="32.045" cy="33.031" rx="1.663" ry=".253"></ellipse><ellipse cx="44.036" cy="33.013" rx="1.664" ry=".254"></ellipse><ellipse cx="35.927" cy="33.013" rx="1.664" ry=".254"></ellipse><ellipse cx="39.947" cy="33.013" rx="1.663" ry=".254"></ellipse><ellipse cx="44.17" cy="32.1" rx="1.424" ry=".254"></ellipse><ellipse cx="30.667" cy="32.134" rx="1.424" ry=".253"></ellipse><ellipse cx="40.935" cy="32.117" rx="1.424" ry=".253"></ellipse><ellipse cx="33.99" cy="32.117" rx="1.425" ry=".253"></ellipse><ellipse cx="37.433" cy="32.117" rx="1.424" ry=".253"></ellipse><ellipse cx="40.518" cy="31.239" rx="1.135" ry=".187"></ellipse><ellipse cx="29.759" cy="31.264" rx="1.135" ry=".187"></ellipse><ellipse cx="37.941" cy="31.251" rx="1.135" ry=".188"></ellipse><ellipse cx="32.408" cy="31.251" rx="1.135" ry=".188"></ellipse><ellipse cx="35.151" cy="31.251" rx="1.135" ry=".188"></ellipse><ellipse cx="37.533" cy="30.532" rx=".983" ry=".187"></ellipse><ellipse cx="28.214" cy="30.557" rx=".982" ry=".187"></ellipse><ellipse cx="35.3" cy="30.544" rx=".983" ry=".187"></ellipse><ellipse cx="30.508" cy="30.544" rx=".983" ry=".187"></ellipse><ellipse cx="32.884" cy="30.544" rx=".983" ry=".187"></ellipse><ellipse cx="33.52" cy="29.916" rx=".878" ry=".101"></ellipse><ellipse cx="31.525" cy="29.922" rx=".879" ry=".102"></ellipse><ellipse cx="27.243" cy="29.922" rx=".878" ry=".102"></ellipse><ellipse cx="29.366" cy="29.922" rx=".878" ry=".102"></ellipse><ellipse cx="31.585" cy="29.399" rx=".762" ry=".102"></ellipse><ellipse cx="29.854" cy="29.406" rx=".762" ry=".102"></ellipse><ellipse cx="26.14" cy="29.406" rx=".762" ry=".102"></ellipse><ellipse cx="27.981" cy="29.406" rx=".762" ry=".102"></ellipse><ellipse cx="29.958" cy="28.91" rx=".673" ry=".101"></ellipse><ellipse cx="28.43" cy="28.917" rx=".673" ry=".102"></ellipse><ellipse cx="25.151" cy="28.917" rx=".672" ry=".102"></ellipse><ellipse cx="26.777" cy="28.917" rx=".673" ry=".102"></ellipse><ellipse cx="27.534" cy="28.458" rx=".614" ry=".074"></ellipse><ellipse cx="26.139" cy="28.463" rx=".614" ry=".074"></ellipse><ellipse cx="24.629" cy="28.463" rx=".614" ry=".074"></ellipse></g><!----></svg>