<svg xmlns="http://www.w3.org/2000/svg" width="36px" height="36px" viewBox="0 0 64 64" style="isolation:isolate" id="chain"><defs><clipPath id="a"><rect width="64" height="64"></rect></clipPath></defs><g clip-path="url(#a)"><path d=" M 31.155 47.335 L 31.815 46.549 C 32.542 45.683 33.835 45.57 34.701 46.297 L 36.273 47.616 C 37.139 48.343 37.252 49.636 36.526 50.502 L 35.866 51.288 L 29.937 58.344 C 29.937 58.344 29.937 58.344 29.937 58.344 C 27.991 60.658 25.113 62 22.092 62 C 19.686 62 17.351 61.15 15.507 59.604 L 7.663 53.019 C 7.663 53.019 7.663 53.019 7.663 53.019 C 5.349 51.073 4.007 48.196 4.007 45.164 C 4.007 42.758 4.857 40.433 6.414 38.59 L 18.262 24.478 C 18.262 24.468 18.262 24.468 18.262 24.468 C 20.208 22.154 23.086 20.822 26.107 20.822 C 28.513 20.822 30.848 21.672 32.691 23.219 L 36.572 26.475 L 37.351 27.132 C 38.216 27.86 38.328 29.155 37.601 30.021 L 36.291 31.583 C 35.565 32.449 34.272 32.562 33.406 31.836 L 32.62 31.176 L 28.738 27.919 C 28.738 27.919 28.738 27.919 28.738 27.919 C 28.001 27.305 27.069 26.967 26.107 26.967 C 24.898 26.967 23.751 27.499 22.973 28.421 L 11.114 42.543 C 11.114 42.543 11.114 42.543 11.114 42.543 C 10.5 43.28 10.152 44.212 10.152 45.175 C 10.152 46.383 10.694 47.53 11.616 48.308 L 19.46 54.893 C 19.46 54.893 19.46 54.893 19.46 54.893 C 20.198 55.518 21.13 55.856 22.092 55.856 C 23.301 55.856 24.448 55.323 25.226 54.391 L 31.155 47.335 Z "></path><path d=" M 32.846 16.665 L 32.186 17.451 C 31.46 18.317 30.167 18.43 29.301 17.703 L 27.728 16.384 C 26.862 15.657 26.749 14.364 27.476 13.498 L 28.136 12.712 L 34.065 5.656 C 34.065 5.656 34.065 5.656 34.065 5.656 C 36.011 3.342 38.888 2 41.909 2 C 44.316 2 46.651 2.85 48.494 4.396 L 56.338 10.981 C 56.338 10.981 56.338 10.981 56.338 10.981 C 58.653 12.927 59.994 15.804 59.994 18.836 C 59.994 21.242 59.144 23.567 57.588 25.41 L 45.739 39.522 C 45.739 39.532 45.739 39.532 45.739 39.532 C 43.793 41.846 40.916 43.178 37.895 43.178 C 35.488 43.178 33.153 42.328 31.31 40.781 L 27.429 37.525 L 26.65 36.868 C 25.786 36.14 25.674 34.845 26.4 33.979 L 27.71 32.417 C 28.437 31.551 29.729 31.438 30.595 32.164 L 31.382 32.824 L 35.263 36.081 C 35.263 36.081 35.263 36.081 35.263 36.081 C 36 36.695 36.932 37.033 37.895 37.033 C 39.103 37.033 40.25 36.501 41.029 35.579 L 52.887 21.457 C 52.887 21.457 52.887 21.457 52.887 21.457 C 53.502 20.72 53.85 19.788 53.85 18.825 C 53.85 17.617 53.307 16.47 52.385 15.692 L 44.541 9.107 C 44.541 9.107 44.541 9.107 44.541 9.107 C 43.804 8.482 42.872 8.144 41.909 8.144 C 40.701 8.144 39.554 8.677 38.776 9.609 L 32.846 16.665 Z "></path></g></svg>